<svg width="24" height="24" viewBox="0 0 24 24" fill="none" xmlns="http://www.w3.org/2000/svg">
	<path
		d="M19 6.5H5C4.46957 6.5 3.96086 6.71071 3.58579 7.08579C3.21071 7.46086 3 7.96957 3 8.5V15C3 15.5304 3.21071 16.0391 3.58579 16.4142C3.96086 16.7893 4.46957 17 5 17H19C19.5304 17 20.0391 16.7893 20.4142 16.4142C20.7893 16.0391 21 15.5304 21 15V8.5C21 7.96957 20.7893 7.46086 20.4142 7.08579C20.0391 6.71071 19.5304 6.5 19 6.5ZM5 8H19C19.1326 8 19.2598 8.05268 19.3536 8.14645C19.4473 8.24021 19.5 8.36739 19.5 8.5V15C19.5 15.1326 19.4473 15.2598 19.3536 15.3536C19.2598 15.4473 19.1326 15.5 19 15.5H5C4.86739 15.5 4.74021 15.4473 4.64645 15.3536C4.55268 15.2598 4.5 15.1326 4.5 15V8.5C4.5 8.36739 4.55268 8.24021 4.64645 8.14645C4.74021 8.05268 4.86739 8 5 8Z"
		fill="currentColor" />
	<rect x="7" y="10.75" width="2" height="2" fill="currentColor" />
	<rect x="11" y="10.75" width="2" height="2" fill="currentColor" />
	<rect x="15" y="10.75" width="2" height="2" fill="currentColor" />
</svg>