<svg width="24" height="24" viewBox="0 0 24 24" fill="none" xmlns="http://www.w3.org/2000/svg">
	<path
		d="M4 13.5H10V10.5H4V13.5ZM12.2 11L13 10.7V14H14V9.29999L11.8 9.99999L12.2 11ZM19.3 9.79999C18.8 9.19999 18.1 9.29999 17.6 9.39999C17.3 9.49999 17.1 9.59999 16.9 9.69999L17 10.8C17.2 10.6 17.5 10.4 17.8 10.3C18.1 10.2 18.4 10.3 18.5 10.4C18.7 10.7 18.5 11.2 18.3 11.5C17.8 12.3 17.4 13.1 16.9 14H19.6V13H18.7C19 12.4 19.5 11.6 19.6 10.9C19.6 10.6 19.5 10.1 19.3 9.79999Z"
		fill="currentColor" />
</svg>